<?xml version="1.0" encoding="utf-8"?>
<!-- Generator: Adobe Illustrator 16.0.3, SVG Export Plug-In . SVG Version: 6.00 Build 0)  -->
<!DOCTYPE svg PUBLIC "-//W3C//DTD SVG 1.1//EN" "http://www.w3.org/Graphics/SVG/1.1/DTD/svg11.dtd">
<svg version="1.1" id="Layer_1" xmlns="http://www.w3.org/2000/svg" xmlns:xlink="http://www.w3.org/1999/xlink" x="0px" y="0px"
	 width="40px" height="40px" viewBox="0 0 40 40" enable-background="new 0 0 40 40" xml:space="preserve">
<path d="M8.473,25.523c-0.194,0.003-0.438-0.012-0.645,0.015c-0.008,0.16,0.009,0.349,0.066,0.499
	c0.086,0.031,0.14,0.073,0.231,0.017C8.246,25.891,8.428,25.708,8.473,25.523z M32.709,24.924c-0.054-0.019-0.104-0.109-0.197-0.076
	c-0.171,0.088-0.525-0.01-0.513,0.258c0.091,0.117,0.05,0.367,0.248,0.363C32.383,25.279,32.734,25.17,32.709,24.924z M7.312,24.651
	c0-0.068-0.065-0.109-0.099-0.166c-0.169-0.005-0.347,0.06-0.512,0.105l-0.264,0.5c-0.124,0.174-0.458,0.109-0.462,0.332
	c0.124,0.117,0.28,0.246,0.396,0.379l0.611-0.455c-0.008-0.162-0.177-0.268-0.166-0.438C6.953,24.754,7.138,24.716,7.312,24.651z
	 M33.402,23.971l-0.198-0.424c-0.227-0.137-0.562,0-0.842,0c-0.095,0.162-0.367,0.238-0.363,0.424
	c0.181,0.034,0.342-0.064,0.545-0.031c0.152,0.072,0.165,0.247,0.313,0.303C33.039,24.155,33.336,24.189,33.402,23.971z
	 M9.591,23.805c-0.062-0.183,0.016-0.481-0.215-0.592c-0.433,0.193-0.891,0.391-1.254,0.666l0.033,0.046
	c0.21-0.034,0.396-0.114,0.611-0.136c0.058,0.098,0.207,0.162,0.231,0.272C9.211,24.062,9.363,23.822,9.591,23.805z M31.751,21.807
	l-0.099-0.318c-0.173,0.037-0.335,0.174-0.495,0.272c-0.013,0.117,0.14,0.136,0.198,0.227c-0.034,0.076,0.008,0.178-0.1,0.228
	c-0.091,0.095-0.381,0.049-0.298,0.211c0.179,0.02,0.348,0.046,0.496,0.122c0.111-0.068,0.189-0.205,0.182-0.349
	c0.086-0.162,0.306-0.219,0.512-0.212C32.109,21.814,31.842,21.957,31.751,21.807z M10.598,21.443
	c-0.441-0.08-0.854-0.231-1.321-0.258c-0.091,0.159-0.219,0.307-0.264,0.484c0.504,0.279-0.152,0.56-0.215,0.848
	c-0.07,0.102,0.095,0.102,0.165,0.105c0.223-0.166,0.442-0.4,0.776-0.348c0.062,0.037,0.091-0.088,0.132,0
	c0.016-0.012,0.024-0.038,0.049-0.031c-0.029-0.192-0.153-0.381-0.083-0.574c0.174,0.019,0.339,0.098,0.496,0.105
	C10.428,21.682,10.582,21.579,10.598,21.443z M26.352,21.141c-0.115-0.061-0.227-0.258-0.364-0.137
	c-0.049,0.201-0.305,0.295-0.429,0.453c0.1,0.062,0.231,0.122,0.346,0.184l-0.016,0.256c0.157,0,0.252-0.132,0.381-0.196
	C26.224,21.537,26.347,21.318,26.352,21.141z M25.277,20.596l-0.065-0.03c-0.178,0.053-0.289-0.235-0.446-0.046
	c-0.086,0.193-0.219,0.344-0.33,0.515c-0.343,0.28-0.821,0.478-1.206,0.727c-0.317,0.507-0.49,1.097-0.809,1.62
	c0.079,0.025,0.145,0.071,0.231,0.074c0.636-0.665,1.713-0.487,2.544-0.453c0.346-0.083,0.664-0.234,0.957-0.438
	c0-0.016-0.005-0.038,0.016-0.046c0.104,0.004,0.211-0.08,0.314-0.121c0.698-0.121,1.45-0.129,2.098-0.227
	c0.078,0.011,0.054-0.072,0.082-0.106c-0.297-0.121-0.685-0.106-0.891-0.363c-0.108,0.083-0.249-0.038-0.347,0.061l0.032,0.03
	c-0.013,0.072,0.029,0.159-0.032,0.212c-0.521,0.05-0.983,0.147-1.504,0.151c-0.343-0.125-0.396,0.322-0.643,0.424
	c-0.282,0.034-0.596-0.049-0.876-0.106c-0.306,0.012-0.574,0.163-0.892,0.106l-0.265-0.182c0.132-0.121,0.371-0.049,0.348-0.287
	h0.445c0.136-0.179,0.174-0.42,0.363-0.591c0.234,0.004,0.531,0.067,0.742-0.046l-0.148-0.271c0.083-0.17,0.211-0.329,0.396-0.455
	L25.277,20.596z M15.073,20.792l-0.198-0.349l-0.067-0.014c-0.103,0.12-0.227,0.283-0.363,0.377l-0.661,0.031v0.03
	c0.239,0.105,0.409,0.283,0.627,0.438c0.252-0.057,0.442-0.246,0.693-0.303C15.131,20.921,14.986,20.863,15.073,20.792z
	 M29.241,20.672l-0.083-0.273c-0.086,0.004-0.124-0.012-0.197,0.016c-0.343,0.029-0.645,0.151-0.925,0.363
	c0.036,0.045,0.099,0.067,0.132,0.091c0.148-0.095,0.297-0.186,0.479-0.212c0.115,0.034,0.091,0.147,0.165,0.212
	c0.162,0.099,0.323-0.103,0.495-0.076L29.241,20.672z M17.269,20.323l-0.214-0.257c-0.231,0.008-0.471,0.037-0.661,0.09l0.05,0.394
	c-0.149,0.11-0.298,0.262-0.43,0.379c0.028,0.011,0.049,0.042,0.083,0.045l0.792-0.105c0.104,0.11,0.219,0.23,0.314,0.333
	l-0.165,0.379c-0.17-0.016-0.29-0.145-0.446-0.182c-0.207-0.076-0.203,0.178-0.331,0.256c0.186,0.197,0.421,0.322,0.529,0.561
	c-0.169,0.072-0.351,0.197-0.562,0.212c-0.173-0.175-0.322-0.348-0.429-0.56c-0.12-0.148-0.306,0.008-0.429,0.075
	c-0.116-0.075-0.19-0.178-0.297-0.242c-0.227,0.087-0.562,0.023-0.776,0.061c-0.05,0.11-0.045,0.242-0.033,0.349
	c0.028-0.004,0.066,0.012,0.083-0.016c0.132,0.053,0.313-0.094,0.446,0c0.194,0.114,0.054,0.27,0.016,0.408
	c0.116,0.068,0.244,0.11,0.38,0.137c0.12-0.117,0.289-0.258,0.446-0.363l0.38,0.363c0.318,0.087,0.673-0.057,0.958,0.121
	c-0.024,0.03-0.058,0.045-0.099,0.045c-0.141,0.068-0.281,0.141-0.429,0.197c0.008,0.158-0.009,0.34-0.05,0.499
	c-0.177-0.099-0.268-0.298-0.413-0.423c-0.569-0.11-1.209-0.02-1.767-0.197c-0.017,0.08-0.107,0.145-0.049,0.227
	c0.929,0.096,1.726,0.48,2.51,0.894c0.21-0.068,0.318-0.231,0.496-0.378c0.462-0.5,0.958-0.969,1.09-1.574
	C18.033,21.432,17.653,20.879,17.269,20.323z M23.363,19.839l-0.051-0.242c-0.372-0.026-0.705-0.012-1.09-0.015
	c0.025,0.26,0.352,0.435,0.562,0.62v0.681l0.083,0.091c0.265-0.163,0.763-0.083,0.793-0.47c-0.099-0.181-0.359-0.188-0.528-0.241
	C23.069,20.069,23.297,19.971,23.363,19.839z M18.888,19.582l-0.463-0.062c-0.136,0.073-0.218,0.231-0.313,0.333l0.445,0.576
	c0.322,0.352,0.372,0.858,0.875,1.089c0.293,0.136,0.26,0.446,0.364,0.681c-0.166,0.484-0.335,0.961-0.48,1.453l0.298,0.045
	c0.182-0.249,0.354-0.54,0.644-0.711c-0.017,0-0.042,0.004-0.05-0.016l0.166-0.074c0.339-0.197,0.594-0.526,1.024-0.591l0.114-0.212
	c0.025-0.117,0.178-0.147,0.148-0.287c-0.045-0.042-0.041-0.117-0.114-0.137c-0.208,0.117-0.418,0.284-0.627,0.424h-0.083
	c-0.074-0.14-0.145-0.279-0.165-0.439l-0.495,0.031l-0.066-0.258c0.099-0.155,0.359-0.012,0.495-0.121
	c0.298-0.057,0.585-0.521,0.875-0.196l0.018,0.046c0.099-0.008,0.148,0.146,0.247,0.09c0.115-0.174,0.058-0.45,0.05-0.635
	c-0.216-0.239-0.562-0.481-0.743-0.758l-0.115,0.031c-0.103,0.053-0.152,0.132-0.083,0.227c0,0.182,0.169,0.261,0.314,0.348
	c0.016,0.088,0.106,0.162,0.049,0.258c-0.099-0.004-0.218,0.079-0.296-0.016c-0.05-0.174-0.269-0.105-0.413-0.136
	c-0.174,0.03-0.194,0.238-0.348,0.317c-0.049,0.02-0.107-0.033-0.165-0.045c-0.272-0.147-0.207-0.45-0.264-0.696l-0.611,0.166
	c-0.272,0.155-0.293-0.204-0.413-0.317c0.062-0.072,0.137-0.17,0.198-0.258c0.041-0.061,0.132-0.076,0.149-0.136
	c-0.054,0.019-0.045-0.042-0.066-0.061C18.941,19.521,18.917,19.559,18.888,19.582z M12.2,19.597
	c0.012-0.076,0.132-0.162,0.016-0.228c-0.396,0.164-0.859,0.216-1.222,0.424c0.152,0.088,0.342,0.117,0.479,0.213
	c-0.058,0.098-0.078,0.207-0.182,0.287c-0.165,0.205,0.189,0.359,0.231,0.561c0.066,0.025,0.104,0.174,0.199,0.075
	c0.012-0.231,0.412-0.409,0.198-0.636C11.787,19.994,12.088,19.823,12.2,19.597z M28.349,18.932
	c-0.428-0.092-0.808-0.281-1.171-0.516c-0.231-0.061-0.451,0.096-0.694,0.105c-0.07,0.012-0.137,0.027-0.132,0.107
	c0.375,0.117,0.875,0.056,1.222,0.287c0.235,0.196-0.086,0.39-0.083,0.574C27.8,19.351,28.288,19.32,28.349,18.932z M14,18.583
	c-0.012-0.125-0.156-0.133-0.248-0.212c-0.211-0.08-0.388,0.125-0.545,0.227c0.038,0.189,0.272,0.265,0.396,0.424
	C13.744,18.893,13.876,18.719,14,18.583z M17.005,18.674c0.07-0.084-0.053-0.133-0.082-0.197c-0.207-0.099-0.471-0.492-0.645-0.105
	l-0.379-0.106c-0.103,0.064-0.194,0.163-0.248,0.257c-0.042,0.084-0.14,0.104-0.148,0.197c0.12,0.076,0.207,0.284,0.38,0.182
	C16.155,18.598,16.622,18.59,17.005,18.674z M25.576,17.66v-0.092l-0.514-0.03c-0.148-0.022-0.198,0.145-0.148,0.242
	c0.211,0.22-0.211,0.269-0.198,0.47l0.496-0.045c0.075-0.197,0.203-0.371,0.33-0.545H25.576z M13.702,17.327
	c-0.115-0.095-0.21,0.037-0.297,0.091c-0.12,0.09-0.297,0.12-0.38,0.227c0.115,0.105,0.289,0.238,0.446,0.197
	C13.484,17.645,13.682,17.52,13.702,17.327z M16.526,17.357c-0.116-0.043-0.223-0.099-0.33-0.152
	c-0.141,0.057-0.231,0.209-0.297,0.333c0.066,0.054,0.144,0.079,0.231,0.091c0.07,0.008,0.104,0.103,0.182,0.092
	C16.357,17.547,16.555,17.561,16.526,17.357z M19.3,17.75c-0.008-0.23-0.384-0.359-0.479-0.574l-0.347,0.514l0.033,0.031
	c0.181-0.084,0.363-0.031,0.578-0.047C19.148,17.725,19.23,17.77,19.3,17.75z M22.735,17.023c-0.152-0.15-0.199,0.156-0.314,0.228
	c-0.037,0.144-0.247,0.242-0.214,0.394c0.099,0.09,0.181,0.178,0.313,0.227c0.158-0.113,0.285-0.254,0.446-0.393
	C22.942,17.327,22.829,17.137,22.735,17.023z M25.823,16.842c-0.091,0.004-0.231-0.011-0.33,0.016l-0.297-0.197
	c-0.194-0.162-0.257,0.133-0.413,0.182c-0.207,0.148-0.43-0.018-0.645-0.029l-0.033,0.029c0.028,0.186,0.257,0.242,0.363,0.409
	c0.343-0.14,0.73-0.121,1.09-0.03C25.62,17.096,25.856,16.971,25.823,16.842z M18.772,16.434c-0.269-0.144-0.616-0.113-0.892-0.242
	l-0.364,0.484c-0.165,0.072-0.425,0.026-0.495,0.212l0.644,0.546c0.074-0.027,0.14-0.134,0.181-0.213
	c0.194-0.363,0.554-0.561,0.925-0.727V16.434z M22.601,25.896c-0.151,0.077-0.484,0.696-0.388,1.542
	c-0.009-0.003,0.109,0.574,0.103,0.567c0-0.001,0.517,2.005,1.617,3.058c0.017,0.015-6.758-0.042-6.835-0.042
	c0,0-2.233,0-2.291-0.047c-0.003-0.004-0.01-0.01-0.02-0.017c-0.022-0.015-0.05-0.028-0.078-0.043
	c-0.03-0.017-0.064-0.036-0.093-0.06c-0.028-0.021-0.058-0.053-0.068-0.098c-0.079-0.343,0.036-0.658,0.174-0.947
	c0.027-0.058,0.044-0.12,0.062-0.187c0.019-0.069,0.037-0.14,0.065-0.205c0.018-0.04,0.225-0.967,0.345-1.483
	c0.313-2.066-0.014-2.25-0.021-2.269c-0.079,0.003-0.095-0.099-0.132-0.152c-0.169-0.234-0.578-0.648-1.034-0.708
	c-0.582-0.44-0.77-0.736-1.377-1.153c-0.359-0.129-0.748-0.053-1.106-0.182c-0.066-0.004-0.145-0.004-0.165,0.061
	c-0.021,0.008-0.016,0.03-0.016,0.045c0.145,0.133,0.409,0.217,0.33,0.439c0.021,0.276-0.351,0.034-0.512,0.151l-0.281,0.016
	c-0.034,0.049,0.049,0.133,0.116,0.121c0.458,0.091,0.979,0.091,1.437,0c0.054,0.136,0.21,0.258,0.214,0.394
	c-0.322,0.208-0.456,0.888-0.922,0.729c-0.256-0.144-0.436-0.379-0.712-0.451l-0.546,0.383c-0.116,0.121-0.064,0.199-0.419-0.068
	c-0.066,0.075-0.175,0.533-0.254,0.586c-0.31,0.16-0.581-0.317-0.877-0.136c0.137,0.2,0.152,0.1,0,0.425
	c-0.306,0.197-0.391,0.404-0.608,0.8c-0.396-0.456-1.179,0.176-1.323-0.256c0.012-0.037-0.172-0.469-0.201-0.476
	c-0.306-0.005-0.83,0.666-1.058,0.272c-0.078-0.117,0.32-0.595,0.217-0.704c-0.182,0.003-0.633,0.567-0.802,0.458
	c-0.091-0.072,0.075-0.53,0.009-0.64c0.091-0.147,0.264-0.238,0.347-0.379c0.029-0.015,0.063-0.015,0.083-0.045
	C5.338,25.129,5.132,24.991,5,24.788c0.178-0.262,0.396-0.492,0.66-0.696c0.166,0.067,0.372,0.041,0.512,0.166
	c0.186-0.053,0.289-0.189,0.462-0.272c-0.104-0.182-0.508-0.272-0.413-0.5c0.273-0.333,0.719-0.529,1.157-0.423
	c0.152-0.072,0.194-0.22,0.33-0.288c0.012-0.171-0.256-0.22-0.397-0.303c-0.429,0.137-0.891,0.257-1.337,0.317
	c-0.012-0.15-0.19-0.294-0.066-0.438c0.07-0.062,0.169-0.1,0.215-0.182c-0.095-0.164-0.087-0.303-0.132-0.484l0.363-0.213
	c0.058,0.113,0.067,0.318,0.248,0.318c0.214-0.151,0.281-0.549,0.661-0.394c0.116,0.087,0.095,0.28,0.28,0.288
	c0.207-0.058,0.389-0.229,0.529-0.364c-0.107-0.147-0.339-0.294-0.248-0.515c0.19-0.15,0.529-0.17,0.677-0.348
	c-0.107-0.083-0.231-0.029-0.347-0.045c-0.235-0.1-0.656-0.016-0.677-0.363c0.19-0.261,0.682-0.371,0.727-0.727
	c0.033-0.095,0.066-0.193,0.099-0.288c0.198,0.034,0.565-0.155,0.66,0.106c0.017,0.087,0.012,0.182,0.1,0.242
	C9.401,19.32,9.76,19.226,9.938,18.9c0.21-0.091,0.417,0.045,0.627,0c0.149,0.068,0.285,0.303,0.462,0.196
	c0.153-0.144,0.413-0.178,0.479-0.378c0.016-0.121-0.013-0.204,0.066-0.303c0.252,0.008,0.512,0.254,0.71,0.121l0.412-0.5
	c-0.14-0.098-0.321-0.174-0.495-0.227c-0.029,0.037-0.141,0.045-0.198,0.091c-0.368,0.147-0.686,0.586-1.106,0.438
	c-0.277-0.067-0.793,0.114-0.925-0.271l0.446-0.228c0.104-0.163,0.173-0.337,0.313-0.484c0.19-0.012,0.355,0.061,0.462,0.196
	c0.607,0.053,0.268-0.809,0.925-0.619c0.066-0.02,0.145,0.033,0.231,0.014l0.445-0.635c0.281-0.041,0.656-0.193,0.908,0.015
	c0.261,0.132-0.317,0.39,0.116,0.47c0.161,0.029,0.281,0.201,0.462,0.137c0.091-0.168,0.483-0.183,0.264-0.425
	c0-0.105-0.152-0.228-0.049-0.302c0.186-0.186,0.446-0.242,0.627-0.409c0.228,0.095,0.446,0.204,0.661,0.333
	c0.351-0.061,0.599-0.394,0.991-0.182c0.062,0.026,0.091-0.042,0.1-0.076c-0.029-0.178-0.079-0.386-0.083-0.59
	c0.268,0.012,0.524,0.088,0.743,0.166c0.33-0.117,0.574-0.507,0.975-0.378c0.165,0.122,0.111,0.337,0.28,0.438
	c-0.033,0.068,0.054,0.061,0.083,0.092c0.157-0.027,0.359-0.217,0.496-0.016c0.049,0.117,0.049,0.291,0,0.408l0.033,0.03
	c0.186-0.045,0.397-0.095,0.578-0.105c0.128-0.147-0.021-0.341-0.066-0.499c0.383-0.178,0.966,0.249,1.222-0.242
	c0.16-0.03,0.338-0.016,0.479,0.045l0.627-0.287c0.152,0.162,0.437,0.25,0.348,0.529c-0.079,0.159-0.327,0.291-0.331,0.5
	c0.12,0.105,0.244-0.061,0.363-0.091c0.186-0.079,0.47,0.03,0.495-0.242l0.066-0.061l0.776-0.016
	c0.094,0.189,0.136,0.397,0.264,0.575c0.228,0.105,0.43-0.117,0.644-0.166c0.331-0.004,0.661-0.322,0.959-0.075
	c0.189,0.063,0.408,0.154,0.446,0.362c-0.03,0.103-0.265,0.155-0.231,0.287c0.16,0.117,0.466-0.064,0.462,0.228
	c0.013,0.099,0.028,0.2,0.116,0.272c0.144-0.012,0.275-0.041,0.429-0.031l-0.05-0.438c0.141-0.008,0.294,0.008,0.396,0.045
	l0.231,0.332l0.363-0.074c0.182,0.141,0.265,0.344,0.247,0.574c0.27,0.167,0.566-0.053,0.859-0.06
	c0.145,0.132,0.43,0.169,0.362,0.423c-0.016,0.113-0.151,0.182-0.148,0.303c0.193,0.092,0.364-0.041,0.562-0.03
	c0.476,0.133,0.055,0.733,0.513,0.788c0.094,0.01,0.193-0.055,0.28-0.106c0.327-0.511,0.586,0.124,0.908,0.196
	c0.116,0.375-0.396,0.379-0.578,0.605v0.046c0.157,0.178,0.627,0.108,0.495,0.469c-0.193,0.117-0.408,0.185-0.578,0.349
	c-0.023,0.124,0.047,0.283,0.115,0.393c0.149-0.03,0.323,0.016,0.463,0l0.298-0.529c0.206,0.019,0.434-0.117,0.562,0.061
	c-0.025,0.121,0.202,0.254-0.033,0.318c-0.053,0.116-0.307,0.124-0.231,0.287c0.033,0.075,0.116,0.151,0.198,0.182
	c0.157-0.008,0.161-0.155,0.298-0.213l0.479-0.362c0.156,0.067,0.252,0.284,0.445,0.181c0.121-0.086,0.17-0.291,0.38-0.211
	c0.165,0.269,0.339,0.57,0.149,0.877c-0.211,0.054-0.405-0.396-0.66-0.136c-0.1,0.091-0.31,0.053-0.314,0.228
	c0.095,0.086,0.198,0.019,0.314,0.061c0.342-0.02,0.197,0.336,0.346,0.484c0.083,0.033,0.058-0.08,0.133-0.062
	c0.129-0.019,0.252-0.087,0.38-0.06c0.082,0.057,0.041,0.158,0.099,0.227c-0.234,0.147-0.483,0.258-0.727,0.378
	c-0.21-0.245-0.553-0.2-0.81-0.349c-0.136,0.064-0.267,0.171-0.362,0.288c0.05,0.189,0.252,0.333,0.362,0.484
	c0.169-0.075,0.314-0.196,0.463-0.317l0.446,0.242c0.119-0.057,0.21-0.182,0.346-0.197l0.348,0.348l-0.215,0.484
	c0,0.186,0.187,0.088,0.28,0.197l-0.032,0.545l0.545,0.091c0.066,0.11-0.009,0.276,0.017,0.378
	c-0.187,0.076-0.454-0.098-0.562,0.092c0.045,0.061-0.004,0.189-0.116,0.182c-0.169,0.015-0.346,0.103-0.512,0.029l-0.314-0.196
	c-0.136,0.205-0.433,0.39-0.362,0.636l0.694-0.105c0.169-0.02,0.297,0.147,0.462,0.181c0.152,0.284,0.095,0.769-0.033,0.893
	c-0.223-0.053-0.759-0.079-0.965-0.177c-0.393,0.298-0.216,0.727-0.649,0.9l-0.711-0.382c-0.059-0.084-0.776-0.137-0.745-0.583
	c0.127-0.121,0.391-0.045,0.462-0.197c-0.133-0.238-0.462-0.162-0.693-0.241c-0.01-0.069-0.067-0.217,0.049-0.228h0.017
	c-0.045-0.098,0.166-0.061,0.247-0.091c0.1,0.004,0.212,0.011,0.248-0.092l0.05-0.408l-0.05-0.045l-0.463-0.046
	c-0.098,0.137-0.272,0.272-0.329,0.439c-0.169,0.057-0.331-0.038-0.463-0.061c-0.104-0.098-0.013-0.23-0.017-0.348
	c0.127-0.103,0.404-0.088,0.379-0.303c-0.086-0.076-0.027-0.225-0.114-0.287c-0.277,0.021-0.496,0.181-0.743,0.271
	c-0.198-0.019-0.501,0.218-0.699,0.245c-0.214,0.136-0.594,0.484-0.828,0.575c-0.134-0.035-0.3-0.732,0.173-0.774
	c-0.021-0.171-0.161-0.314-0.133-0.484c-0.247,0.037-0.499,0.098-0.71,0.182c-0.065-0.117-0.186-0.175-0.214-0.304
	c0.181-0.154,0.375-0.257,0.594-0.363c0.169,0.05,0.249,0.266,0.463,0.242c0.194-0.064,0.322-0.375,0.528-0.121
	c0.269,0.397,0.686-0.003,0.975-0.061c0.016-0.035-0.012-0.063-0.041-0.078c-0.009-0.002-0.019-0.006-0.025-0.012
	c0.007,0.002,0.017,0.006,0.025,0.012c0.023,0.002,0.051-0.016,0.074-0.058c-0.033-0.132-0.128-0.242-0.182-0.363
	c-0.224-0.11-0.38,0.196-0.578,0.272v0.045c-0.285-0.003-0.524-0.053-0.826-0.061c0.037-0.147,0.219-0.359,0.033-0.469
	c-0.413,0.034-0.821,0.026-1.173,0.242c-0.599,0.412-1.023,1.078-1.782,1.166c-0.219-0.017-0.497,0.162-0.765,0.396
	c-0.042,0.012-0.088,0.019-0.136,0.016c-0.003,0.002-0.008,0.006-0.012,0.008c-0.035,0.014-0.072,0.009-0.102-0.011
	c-0.134-0.004-0.263-0.022-0.394-0.037C23.886,24.751,22.79,25.8,22.601,25.896"/>
</svg>
