<?xml version="1.0" encoding="utf-8"?>
<!-- Generator: Adobe Illustrator 16.0.3, SVG Export Plug-In . SVG Version: 6.00 Build 0)  -->
<!DOCTYPE svg PUBLIC "-//W3C//DTD SVG 1.1//EN" "http://www.w3.org/Graphics/SVG/1.1/DTD/svg11.dtd">
<svg version="1.1" id="Layer_1" xmlns="http://www.w3.org/2000/svg" xmlns:xlink="http://www.w3.org/1999/xlink" x="0px" y="0px"
	 width="40px" height="40px" viewBox="0 0 40 40" enable-background="new 0 0 40 40" xml:space="preserve">
<g>
	<polygon points="11.649,34.389 11.638,34.395 11.649,34.395 	"/>
	<path d="M14.145,11.455c0-0.133,0.071-0.262-0.002-0.415c-0.06,0.21-0.045,0.387-0.053,0.567c-0.014,0.021-0.007,0.044-0.011,0.067
		C14.132,11.599,14.185,11.525,14.145,11.455C14.145,11.322,14.185,11.525,14.145,11.455z"/>
	<path d="M13,19.874c0-0.004,0.032-0.008,0.062-0.009L13,19.864C13,19.867,13,19.87,13,19.874z"/>
	<path d="M14.212,11.955c0.003-0.007,0.001,0,0.001-0.022c-0.004,0.005-0.006,0.009-0.012,0.013
		C14.209,11.947,14.212,11.95,14.212,11.955z"/>
	<path d="M14.124,11.953c-0.012,0-0.036-0.001-0.048-0.002c0.009-0.093-0.017-0.187,0.002-0.277
		c-0.085,0.123-0.176,0.431-0.024,0.534c0.05-0.055,0.115-0.121,0.105-0.218C14.158,11.977,14.124,11.965,14.124,11.953
		C14.112,11.953,14.124,11.965,14.124,11.953z"/>
	<path d="M13,17.618c0,0,0,0.03,0,0.073c0.004-0.027,0.001-0.058,0.02-0.082C13.034,17.604,13,17.614,13,17.618z"/>
	<path d="M31.061,35.959c0.002,0,0.006,0,0.014,0C31.075,35.95,31.07,35.95,31.061,35.959z"/>
	<path d="M14.137,11.913c0.006,0.004,0.013,0.007,0.019,0.01c-0.007-0.006-0.015-0.012-0.019-0.021
		C14.137,11.906,14.137,11.91,14.137,11.913C14.143,11.917,14.137,11.91,14.137,11.913z"/>
	<polygon points="20.779,9.232 20.787,9.237 20.788,9.227 	"/>
	<path d="M28.046,7.276c-0.053,0.006-0.015,0.054-0.021,0.089c0.009,0.072,0,0.142-0.008,0.212c0.021-0.081,0.049-0.162,0.037-0.242
		C28.051,7.305,28.084,7.271,28.046,7.276C27.993,7.282,28.084,7.271,28.046,7.276z"/>
	<path d="M29.268,14.215c0.002,0.047,0.006,0.1,0.006,0.143C29.282,14.352,29.279,14.289,29.268,14.215z"/>
	<path d="M31,30.343c0-0.714,0.622-4.817-0.387-4.974c-0.278-0.044-1.356-0.45-1.53-0.328c-0.024-0.096,0.022-0.604,0.034-0.752
		c0.074-1.033-0.036-2.129-0.032-3.166c0.004-1.156,0.001-2.313,0.021-3.469c0.011-0.504,0.023-0.942,0-1.357
		c-0.06-0.875,0.271,0.037,0.711-0.679c0.107-0.321,0.17-0.651,0.185-0.989c0,0.738-1.741,0.148-1-0.629
		c0.159-0.165,0.241,0.055,0.269,0.215c-0.027-0.779-0.265-2.207,0.158-2.775c0.09-0.119-0.25-0.236-0.332-0.31
		c-0.201-0.177,0.01-0.448,0.051-0.651c0.051-0.238,0.357-0.317,0.273-0.591c-0.22-0.112-0.671-0.332-0.83-0.499
		c-0.072-0.5-0.527-1.06-0.583-1.589c-0.021,0.37-0.079,0.718-0.071,1.093c-0.307,0.162-0.226,0.578-0.658,0.709
		c-0.082,0.024-0.737-0.267-0.844-0.364c0.002,0,0.119-0.031,0.135-0.039C26.521,9.222,26.016,9.161,26,9.16
		c0-0.147,0.289-0.573-0.02-0.649C26.341,8.42,25.979,7.003,26.02,7c-0.146,0.016-0.264,1.644-0.338,1.774
		c-0.139,0.26-0.184,0.318-0.384,0.576c-0.575,0.256-0.04,0.419-0.223,0.729c0.028,0.016-0.827-0.017-0.466-0.249
		c0-0.375,0.306-1.092-0.16-1.134c-0.491-0.044-0.629-0.416-1.021-0.605c-0.027-0.135-0.373-0.592-0.464-0.686
		c-0.5-0.174-0.706,0.322-0.942,0.686c-0.047,0.028-0.474,0.345-0.511,0.308C21.309,8.518,20.781,8.6,20.634,8.74
		c0,0.747,0.781,1.106-0.259,1.377c-0.152,0.04-0.681,0.373-0.744,0.125c-0.073-0.241-0.037-0.522-0.107-0.775
		c-0.926,0.154-0.104,2.906-0.471,3.248c-0.373,0.112-0.371,0.082-0.6-0.146c-0.124-0.053-0.6-0.483-0.609-0.568
		c-0.407,0-0.05-0.285-0.267-0.476c-0.006-0.161-0.023-0.313-0.039-0.472c0-0.317-0.216-0.223-0.269-0.47
		c-0.098,0.106-0.188,0.219-0.269,0.338c0,0.24-0.004,0.481-0.034,0.719c-0.027,0.215-0.107,0.501-0.223,0.685
		c-0.209,0.333-0.346,0.147-0.352,0.615c-0.455,0.24-0.474,0.478-0.767,0.731c-0.172,0-0.742-0.026-0.538-0.272
		c0.352-0.469-0.618-0.89-1.032-1.19c-0.121,0.134,0.034,0.313-0.155,0.416c-0.25,0.136-0.502,0.265-0.75,0.397
		c0.133,0.267,0.184,0.672,0.184,0.965c-0.515-0.09-0.421,0.426-0.056,0.527c-0.157,0.157-0.235,0.204,0.005,0.303
		c-0.117,0.289-0.1,0.965-0.104,1.316c-0.005,0.637-0.05,1.236,0.002,1.868C13.12,18,13.06,18,13,18
		c-0.014,0.105,0.094,0.775,0.121,0.785c-0.056,0.083-0.245,1.025,0.145,1.047c0,0.023-0.174,0.034-0.203,0.033
		c0.338-0.012-0.041,0.338-0.115,0.422c-0.195,0.343,0.043,0.676-0.079,0.952c-0.572-0.218-0.649,0.253-0.396,0.888
		c-0.539-0.078-0.618,0.004-0.236,0.245c0.016,0.003,0.192,0.373,0.242,0.463c0.178,0.326,0.612,0.008,0.816,0.265
		c-0.001,0.02-0.262,0.049-0.295,0.053c0.055,0.098,0.186,0.41,0.135,0.582c-0.017,0.105,0.005,0.201,0.065,0.289
		c-0.079,0.158-0.182-0.023-0.175,0.197c0.031,0.006-0.108,1.151,0.072,1.225c-0.76,0,0.447,2.23-0.382,2.385
		c-0.221,0.04-0.013,0.059-0.063,0.139c-0.1,0.159-0.623,0.014-0.823,0.152c-0.243,0.173-0.083,0.959,0.017,0.881
		c-0.365,0,0.076,0.725,0.129,1.021c0.063,0.342-0.078,0.412-0.246,0.697c0.892,0.389-0.032,2.36,0.048,2.877
		c0.028,0.16,0.046,0.322,0.054,0.484c0.019,0.656,0.114,0.15-0.491,0.501C11.336,34.581,10.136,37,11.613,37
		c3.726,0,7.451,0,11.176,0c2.627,0,5.254,0,7.881,0C31.438,37,31,31.195,31,30.343z M17.21,11.224
		c-0.077,0.091-0.123,0.075-0.14-0.047C17.12,11.183,17.167,11.198,17.21,11.224z"/>
	<path d="M19,11.912c-0.002,0.014,0.008,0.015,0.029,0.003C19.016,11.914,19,11.913,19,11.912z"/>
	<path d="M28,7.67c-0.016,0.047-0.014,0.09,0.006,0.13c0.004-0.074,0.005-0.148,0.014-0.222C28.011,7.608,28,7.639,28,7.67z"/>
	<path d="M18.001,11.727c0-0.004-0.17-0.012-0.157-0.004c0.054,0.098-0.157,0.246,0,0.27c0,0.002,0,0.004,0,0.007
		C17.924,12,18,12,18,12S18,11.726,18.001,11.727z"/>
	<path d="M19.041,11.913C19.002,11.913,19.063,11.92,19.041,11.913C19.036,11.913,19.044,11.914,19.041,11.913z"/>
</g>
</svg>
