<?xml version="1.0" encoding="utf-8"?>
<!-- Generator: Adobe Illustrator 16.0.3, SVG Export Plug-In . SVG Version: 6.00 Build 0)  -->
<!DOCTYPE svg PUBLIC "-//W3C//DTD SVG 1.1//EN" "http://www.w3.org/Graphics/SVG/1.1/DTD/svg11.dtd">
<svg version="1.1" id="Layer_1" xmlns="http://www.w3.org/2000/svg" xmlns:xlink="http://www.w3.org/1999/xlink" x="0px" y="0px"
	 width="40px" height="40px" viewBox="0 0 40 40" enable-background="new 0 0 40 40" xml:space="preserve">
<path fill-rule="evenodd" clip-rule="evenodd" d="M27.379,27.608c0.262-0.215,0.481-0.425,0.729-0.592
	c0.278-0.188,0.438-0.422,0.436-0.761c-0.001-0.159,0.064-0.276,0.226-0.32c0.296-0.082,0.395-0.277,0.347-0.57
	c-0.023-0.15,0.013-0.264,0.175-0.345c0.343-0.17,0.346-0.184,0.241-0.564c-0.044-0.162-0.001-0.251,0.138-0.329
	c0.136-0.075,0.26-0.171,0.398-0.265c-0.111-0.187-0.203-0.353-0.308-0.51c-0.072-0.108-0.055-0.182,0.04-0.265
	c0.152-0.133,0.296-0.277,0.445-0.418c-0.062-0.076-0.095-0.134-0.143-0.173c-0.192-0.153-0.214-0.313-0.037-0.493
	c0.027-0.027,0.04-0.069,0.067-0.098c0.124-0.133,0.103-0.253-0.031-0.361c-0.156-0.126-0.159-0.254-0.02-0.396
	c0.049-0.051,0.077-0.122,0.126-0.174c0.136-0.144,0.147-0.289,0.012-0.436c-0.275-0.299-0.294-0.626-0.111-0.977
	c0.014-0.027,0.03-0.061,0.028-0.09c-0.007-0.096,0.014-0.225-0.04-0.281c-0.392-0.41-0.446-0.882-0.293-1.402
	c0.011-0.037,0.007-0.08,0.019-0.117c0.064-0.189,0.017-0.338-0.154-0.447c-0.532-0.34-0.787-0.817-0.725-1.455
	c0.026-0.276-0.087-0.451-0.379-0.487c-0.266-0.033-0.38-0.19-0.359-0.454c0.002-0.031-0.007-0.063-0.01-0.094
	c-0.064-0.647-0.061-0.66-0.698-0.816c-0.252-0.063-0.422-0.162-0.459-0.428c-0.077-0.542-0.399-0.781-0.932-0.773
	c-0.208,0.003-0.35-0.092-0.388-0.305c-0.063-0.35-0.278-0.484-0.619-0.449c-0.039,0.004-0.08-0.01-0.119-0.005
	c-0.348,0.047-0.596-0.101-0.766-0.395c-0.091-0.158-0.222-0.22-0.397-0.179c-0.275,0.065-0.476-0.022-0.603-0.278
	c-0.072-0.147-0.184-0.183-0.333-0.113c-0.329,0.153-0.627,0.097-0.895-0.141c-0.156-0.14-0.324-0.143-0.503-0.055
	c-0.215,0.106-0.41,0.084-0.594-0.075c-0.107-0.093-0.228-0.151-0.365-0.053c-0.303,0.216-0.6,0.182-0.896-0.018
	c-0.059-0.04-0.127-0.08-0.194-0.086c-0.082-0.008-0.21-0.01-0.243,0.038c-0.22,0.321-0.492,0.31-0.801,0.164
	c-0.071-0.034-0.155-0.04-0.226-0.074c-0.178-0.086-0.319-0.048-0.431,0.111c-0.269,0.381-0.586,0.518-1.002,0.211
	c-0.122-0.09-0.228-0.052-0.282,0.086c-0.176,0.452-0.519,0.571-0.964,0.497c-0.008-0.001-0.016,0.001-0.024,0
	c-0.194-0.033-0.335,0.034-0.427,0.214c-0.242,0.474-0.59,0.775-1.162,0.775c-0.271,0-0.244,0.288-0.292,0.457
	c-0.078,0.27-0.212,0.432-0.499,0.441c-0.376,0.016-0.553,0.227-0.619,0.582c-0.037,0.2-0.096,0.403-0.332,0.482
	c-0.432,0.145-0.614,0.457-0.59,0.902c0.012,0.22-0.095,0.339-0.3,0.42c-0.35,0.139-0.363,0.154-0.311,0.535
	c0.042,0.307-0.015,0.543-0.295,0.701c-0.027,0.015-0.046,0.044-0.073,0.061c-0.163,0.1-0.219,0.238-0.162,0.423
	c0.111,0.36,0.033,0.677-0.192,0.978c-0.072,0.098-0.132,0.26-0.104,0.367c0.115,0.433,0.024,0.828-0.127,1.229
	c-0.039,0.104-0.066,0.25-0.022,0.338c0.181,0.37,0.156,0.736,0.036,1.108c-0.053,0.167-0.03,0.308,0.074,0.445
	c0.189,0.251,0.227,0.528,0.16,0.835c-0.021,0.098-0.006,0.229,0.047,0.311c0.249,0.384,0.362,0.804,0.4,1.253
	c0.008,0.094,0.049,0.217,0.118,0.266c0.227,0.162,0.291,0.401,0.375,0.642c0.061,0.172,0.158,0.334,0.257,0.489
	c0.129,0.201,0.382,0.321,0.39,0.604c0.005,0.202,0.113,0.317,0.31,0.359c0.239,0.052,0.395,0.181,0.411,0.444
	c0.01,0.162,0.094,0.227,0.267,0.217c0.212-0.012,0.328,0.175,0.235,0.357c-0.027,0.055-0.079,0.099-0.121,0.146
	c-1.613,1.783-3.227,3.565-4.839,5.349c-0.059,0.065-0.11,0.138-0.185,0.232c0.095,0.008,0.142,0.015,0.188,0.015
	c1.658,0,3.317-0.004,4.976,0.002c0.167,0.001,0.215-0.085,0.266-0.21c0.498-1.245,0.998-2.489,1.498-3.733
	c0.03-0.075,0.067-0.148,0.083-0.185c0.652,0.29,1.251,0.617,1.915,0.87c0,0.046,0.002,0.124,0,0.202
	c-0.032,0.92-0.059,1.84-0.103,2.759c-0.011,0.224,0.041,0.301,0.278,0.3c1.944-0.01,3.888-0.012,5.832-0.003
	c0.232,0.001,0.292-0.066,0.291-0.292c-0.004-0.912,0.009-1.825,0.021-2.737c0.001-0.077,0.039-0.218,0.07-0.22
	c0.208-0.019,0.376-0.089,0.51-0.254c0.022-0.028,0.109-0.026,0.157-0.011c0.186,0.062,0.295-0.02,0.397-0.165
	c0.05-0.071,0.158-0.17,0.214-0.155c0.253,0.067,0.424-0.031,0.579-0.272c0.066,0.131,0.108,0.207,0.144,0.285
	c0.531,1.205,1.064,2.409,1.59,3.616c0.066,0.152,0.152,0.208,0.321,0.207c1.611-0.007,3.223-0.006,4.833-0.008
	c0.064,0,0.129-0.011,0.178-0.016C30.555,31.56,28.866,29.676,27.379,27.608z"/>
</svg>
