<?xml version="1.0" encoding="utf-8"?>
<!-- Generator: Adobe Illustrator 16.0.3, SVG Export Plug-In . SVG Version: 6.00 Build 0)  -->
<!DOCTYPE svg PUBLIC "-//W3C//DTD SVG 1.1//EN" "http://www.w3.org/Graphics/SVG/1.1/DTD/svg11.dtd">
<svg version="1.1" xmlns="http://www.w3.org/2000/svg" xmlns:xlink="http://www.w3.org/1999/xlink" x="0px" y="0px" width="40px"
	 height="40px" viewBox="0 0 40 40" enable-background="new 0 0 40 40" xml:space="preserve">
<g id="Layer_1" display="none">
	<g display="inline">
		<path d="M10.619,30.021l-0.606-0.627v-1.534h4.365v1.534l-0.687,0.681L14.37,35h8.059l0.68-4.926l-0.646-0.739V28.03h-0.687
			l1.454-0.938l1.415-3.5l1.415,3.5l1.011,0.625v-2.873h0.889v-1.28h-0.485v0.342h-0.444v-0.342h-0.484v0.316h-0.486v-1.623h0.688
			l-0.97-2.757l-0.565,1.505v-2.131h0.525l-1.092-3.212l-0.889,2.616h-0.728v-2.845h-2.305v3.299l0.89,2.817h-1.94v1.246h-2.627
			v-1.306h-1.212v-0.312h1.212V19.5h2.627v1.706h1.536l-1.375-4.268h-2.829l-1.132,3.47l-1.051-3.582l-0.93,3.554l-0.97,0.881h0.93
			v6.169l-0.404-0.254l-1.253-3.012l-1.213,3.012l-0.606,0.399v-0.429H9.204v0.483l-0.646-0.342L7.426,24.56l-1.051,2.673
			l-1.011,0.627h4.244v2.189H9.245V35h0.741L10.619,30.021z M19.476,29.656v1.524h-2.122v-1.524h0.002
			c0-0.007-0.002-0.011-0.002-0.02c0-0.202,0.236-0.37,0.527-0.37c0.292,0,0.527,0.168,0.527,0.37c0,0.009-0.001,0.013-0.002,0.02
			h0.019c0-0.007-0.002-0.011-0.002-0.02c0-0.202,0.236-0.37,0.527-0.37c0.292,0,0.527,0.168,0.527,0.37
			c0,0.009-0.002,0.013-0.002,0.02H19.476z M17.39,27.859c0-0.401,0.46-0.725,1.025-0.725s1.025,0.323,1.025,0.725
			c0,0.396-0.46,0.72-1.025,0.72S17.39,28.256,17.39,27.859z M16.09,26.968l1.812-3.568h1.041l1.798,3.594v4.188H20.12l-0.01-0.022
			v-4.87c0.008-0.015,0.013-0.03,0.013-0.048c0-0.084-0.094-0.149-0.209-0.149s-0.209,0.065-0.209,0.149
			c0,0.018,0.005,0.033,0.013,0.048v0.222H19.71v0.497c-0.004,0-0.009,0-0.013,0c-0.179,0-0.324-0.101-0.324-0.226
			c0-0.112,0.111-0.202,0.258-0.226l-0.032-0.086c-0.033,0.007-0.068,0.011-0.104,0.011c-0.179,0-0.324-0.103-0.324-0.229
			c0-0.108,0.117-0.203,0.27-0.222l-0.034-0.095c-0.039,0.011-0.083,0.019-0.128,0.019c-0.179,0-0.324-0.102-0.324-0.229
			c0-0.116,0.129-0.215,0.294-0.226l-0.033-0.091c-0.039,0.011-0.082,0.018-0.126,0.018c-0.179,0-0.325-0.101-0.325-0.229
			c0-0.116,0.129-0.215,0.293-0.226l-0.032-0.087c-0.035,0.007-0.073,0.014-0.112,0.014c-0.153,0-0.282-0.076-0.315-0.174h-0.003
			v-0.888c0.008-0.015,0.014-0.032,0.014-0.052c0-0.08-0.094-0.145-0.21-0.145c-0.115,0-0.209,0.064-0.209,0.145
			c0,0.02,0.005,0.037,0.013,0.052v0.932c-0.052,0.076-0.162,0.13-0.291,0.13c-0.044,0-0.086-0.007-0.125-0.018l-0.033,0.091
			c0.171,0.007,0.307,0.105,0.307,0.226c0,0.128-0.146,0.229-0.325,0.229c-0.05,0-0.098-0.007-0.141-0.021l-0.036,0.094
			c0.161,0.016,0.285,0.109,0.285,0.226c0,0.128-0.145,0.229-0.325,0.229c-0.042,0-0.083-0.008-0.121-0.015l-0.033,0.087
			c0.162,0.015,0.29,0.109,0.29,0.226c0,0.127-0.146,0.229-0.325,0.229c-0.044,0-0.086-0.004-0.124-0.019l-0.034,0.094
			c0.158,0.016,0.28,0.11,0.28,0.226c0,0.125-0.145,0.226-0.324,0.226c-0.006,0-0.012,0-0.017,0v-0.454c0,0,0,0,0,0v-0.265
			c0.008-0.015,0.014-0.03,0.014-0.048c0-0.084-0.094-0.149-0.21-0.149c-0.115,0-0.209,0.065-0.209,0.149
			c0,0.018,0.005,0.033,0.014,0.048v4.87v0.022h-0.63V26.968L16.09,26.968z M18.356,18.364l1.37,0.939H17.13L18.356,18.364z"/>
		<polygon points="8.84,30.104 5.606,30.133 5.02,35 8.919,35 		"/>
		<polygon points="9.366,29.903 9.366,28.055 8.597,28.055 8.597,28.369 8.112,28.369 8.112,28.055 7.345,28.055 7.345,28.369 
			6.859,28.369 6.859,28.055 6.172,28.055 6.172,28.343 5.728,28.343 5.728,28.055 5,28.055 5,29.365 5.566,29.903 		"/>
		<polygon points="13.408,30.104 14.054,29.478 10.376,29.424 10.982,30.104 10.354,35 14.036,35 		"/>
		<polygon points="10.335,28.055 10.295,29.278 14.014,29.278 14.014,28.085 13.205,28.085 13.205,28.397 12.68,28.397 12.68,28.03 
			11.791,28.03 11.791,28.397 11.225,28.397 11.225,28.055 		"/>
		<polygon points="25.897,30.074 26.504,29.424 22.825,29.424 23.472,30.104 22.804,35 26.527,35 		"/>
		<polygon points="31.839,32.064 29.979,32.064 29.454,30.983 29.495,30.074 26.14,30.104 26.809,35 32.226,35 		"/>
		<polygon points="30.223,31.81 31.839,31.81 32.203,31.041 29.818,31.041 		"/>
		<rect x="29.818" y="27.859" width="2.344" height="2.983"/>
		<polygon points="31.758,27.092 31.03,24.446 30.304,27.034 29.656,27.659 32.405,27.659 		"/>
		<polygon points="28.039,28.343 27.313,28.343 27.313,28.682 26.827,28.682 26.827,29.478 26.423,29.903 29.495,29.903 
			29.495,28.343 28.687,28.343 28.687,28.651 28.039,28.651 		"/>
		<polygon points="26.504,28.03 25.736,28.03 25.736,28.397 25.089,28.397 25.089,28.03 24.2,28.03 24.2,28.426 23.674,28.426 
			23.674,28.03 22.785,28.055 22.785,29.252 26.504,29.252 		"/>
		<polygon points="25.897,27.232 24.685,24.164 23.554,27.176 22.422,27.829 26.948,27.829 		"/>
		<polygon points="9.77,24.73 8.719,26.921 10.821,26.921 		"/>
		<polygon points="28.282,23.337 27.313,22.17 26.302,23.337 		"/>
		<polygon points="23.674,13.472 22.987,10.799 22.26,13.472 		"/>
		<polygon points="22.583,11.053 21.855,8.07 20.481,13.472 21.937,13.472 		"/>
		<polygon points="19.107,14.152 18.419,16.626 19.834,16.626 		"/>
		<polygon points="23.027,15.178 23.674,14.436 23.674,13.614 20.077,13.614 20.077,14.411 20.724,15.178 		"/>
		<g>
			<polygon points="6.599,34.861 5.344,34.788 6.204,30.475 7.172,30.372 			"/>
			<polygon points="6.168,29.718 9.037,29.515 9.145,28.71 5.666,28.608 5.559,29.289 			"/>
			<polygon points="6.347,27.648 7.459,27.648 7.531,25.276 6.778,27.245 			"/>
			<polygon points="9.145,26.691 9.79,26.768 9.825,25.353 			"/>
			<polygon points="11.583,27.172 11.008,27.547 12.228,27.597 12.228,24.851 			"/>
			<polygon points="10.686,28.685 10.722,28.987 13.626,29.038 13.806,28.506 			"/>
			<polygon points="11.547,30.296 10.83,34.636 12.084,34.585 12.013,29.667 10.901,29.616 			"/>
			<polygon points="15.24,32.693 15.24,34.764 15.957,34.887 16.064,32.846 			"/>
			<polygon points="14.774,32.366 16.316,32.29 16.746,31.507 14.738,31.482 			"/>
			<polygon points="19.687,31.38 20.833,32.468 22.017,32.468 22.304,31.329 			"/>
			<polygon points="20.618,32.896 20.762,34.61 21.802,34.636 21.945,32.744 			"/>
			<polygon points="23.917,30.147 23.416,34.861 24.599,34.938 24.169,30.045 24.312,29.718 23.416,29.667 			"/>
			<polygon points="27.108,30.552 27.396,34.661 29.547,34.788 29.583,31.86 28.974,31.129 29.009,30.576 			"/>
			<polygon points="30.3,31.205 30.479,31.635 31.124,31.686 30.838,31.181 			"/>
			<polygon points="30.228,30.624 30.73,30.624 30.802,28.052 30.192,28.026 			"/>
			<polygon points="30.658,27.146 30.265,27.423 31.124,27.447 31.089,25.203 			"/>
			<polygon points="28.472,29.012 28.399,29.539 28.938,29.463 28.938,29.063 			"/>
			<polygon points="27.897,29.038 28.005,29.515 27.432,29.515 27.503,29.088 			"/>
			<polygon points="26.212,28.634 26.248,28.961 23.164,29.063 23.451,28.557 			"/>
			<polygon points="24.204,27.12 23.38,27.571 24.813,27.623 24.706,24.924 			"/>
			<polygon points="26.177,24.043 26.212,24.698 26.679,24.724 26.679,24.095 			"/>
			<polygon points="27.145,24.095 27.181,24.596 27.611,24.622 27.611,24.068 			"/>
			<polygon points="27.359,23.184 26.821,23.159 27.288,22.603 			"/>
			<polygon points="26.212,21.973 25.172,21.999 25.818,20.286 			"/>
			<polygon points="22.949,26.39 24.563,23.235 24.42,20.966 22.52,21.018 			"/>
			<polygon points="14.881,24.043 14.917,23.363 17.391,23.409 16.316,25.556 15.097,25.556 			"/>
			<polygon points="14.344,22.628 14.2,22.908 16.638,23.134 16.782,22.555 			"/>
			<polygon points="14.308,20.311 13.698,20.89 14.738,20.813 14.881,18.318 			"/>
			<polygon points="17.212,17.459 17.248,18.041 19.615,18.114 19.579,17.357 			"/>
			<polygon points="21.084,18.696 22.304,20.689 22.304,15.797 21.264,15.797 			"/>
			<polygon points="24.383,18.318 23.882,18.544 24.778,18.594 24.67,16.702 			"/>
			<polygon points="20.439,13.927 20.368,14.407 23.416,14.28 23.56,13.778 			"/>
			<polygon points="20.941,13.17 21.838,13.145 21.909,9.187 			"/>
			<polygon points="22.662,13.221 22.985,13.221 22.985,11.733 			"/>
		</g>
		<g>
			<polygon points="6.965,30.689 6.568,30.689 5.991,34.517 6.82,34.593 			"/>
			<polygon points="11.58,31.726 11.254,34.389 12.444,34.313 12.372,31.7 			"/>
			<polygon points="15.148,31.679 15.148,32.158 16.266,32.107 16.266,31.726 			"/>
			<polygon points="20.808,31.5 20.771,31.98 21.998,31.904 21.925,31.5 			"/>
			<polygon points="24.053,31.576 24.053,34.771 24.521,34.746 24.737,31.552 			"/>
			<polygon points="27.333,30.839 27.693,34.517 28.522,34.465 28.198,30.863 			"/>
			<polygon points="14.355,23.813 14.607,26.324 15.148,26.277 15.689,23.992 			"/>
			<polygon points="23.007,24.778 23.439,24.119 23.439,21.278 22.755,21.278 			"/>
			<polygon points="20.628,13.825 20.628,14.357 20.988,14.331 21.024,13.749 			"/>
			<polygon points="21.709,13.749 21.745,14.331 22.178,14.208 22.106,13.749 			"/>
			<polygon points="22.862,13.825 22.827,14.28 23.151,14.407 23.224,13.876 			"/>
		</g>
		<rect x="21.133" y="22.472" width="0.937" height="1.597"/>
		<rect x="23.007" y="19.1" width="0.938" height="1.647"/>
		<rect x="17.491" y="19.707" width="0.685" height="1.218"/>
		<rect x="18.573" y="19.707" width="0.648" height="1.245"/>
		<rect x="18.537" y="21.38" width="0.686" height="1.193"/>
		<rect x="17.456" y="21.38" width="0.721" height="1.193"/>
		<rect x="7.326" y="30.613" width="0.865" height="1.698"/>
		<rect x="12.156" y="30.307" width="0.613" height="1.598"/>
		<rect x="24.485" y="30.281" width="0.612" height="1.623"/>
		<rect x="31.082" y="28.328" width="0.648" height="1.346"/>
		<rect x="16.518" y="33.122" width="3.425" height="1.878"/>
		<g>
			<polygon points="19.071,32.134 17.651,32.134 17.369,32.337 19.329,32.337 			"/>
			<polygon points="16.698,32.817 19.943,32.817 19.652,32.588 17.016,32.588 			"/>
			<polygon points="18.393,31.603 17.934,31.929 18.812,31.929 			"/>
		</g>
		<polygon points="18.356,18.364 17.13,19.304 19.726,19.304 		"/>
		<path d="M18.415,27.135c-0.565,0-1.025,0.323-1.025,0.725c0,0.396,0.46,0.72,1.025,0.72s1.025-0.323,1.025-0.72
			C19.44,27.458,18.98,27.135,18.415,27.135z M18.415,28.408c-0.432,0-0.782-0.247-0.782-0.549c0-0.306,0.351-0.554,0.782-0.554
			s0.782,0.248,0.782,0.554C19.197,28.161,18.847,28.408,18.415,28.408z"/>
	</g>
</g>
<g id="Layer_2">
	<g>
		<path fill-rule="evenodd" clip-rule="evenodd" d="M22.073,17.526c0.022-0.867,0.045-1.725,0.068-2.595
			c-0.125,0.011-0.226,0.02-0.341,0.029c0.041-0.518-0.046-1.015-0.312-1.51c0.207-0.025,0.399-0.043,0.588-0.074
			c0.053-0.009,0.134-0.056,0.135-0.086c0.011-0.277,0.006-0.554,0.006-0.839c-0.11-0.005-0.2-0.008-0.309-0.013
			c0.491-0.938,0.853-1.894,1.132-2.868c0.277-0.971,0.379-1.956,0.415-2.946c0.061,1.989,0.767,3.891,1.428,5.81
			c-0.042,0.003-0.091,0.007-0.139,0.009c-0.046,0.002-0.091,0.003-0.143,0.005c0,0.337,0,0.67,0,1.023
			c0.268,0.01,0.513,0.02,0.776,0.029c-0.247,0.438-0.331,0.881-0.254,1.333c-0.014,0.015-0.02,0.029-0.028,0.03
			c-0.243,0.015-0.264,0.128-0.263,0.282c0.021,1.929,0.031,3.857,0.045,5.786c0,0.043,0.006,0.086,0.01,0.14c0.3,0,0.591,0,0.898,0
			c0-0.256,0-0.511,0-0.789c-0.161,0-0.32,0-0.475,0c0.59-1.226,0.861-2.479,1.033-3.748c0.012-0.092-0.004-0.148-0.125-0.2
			c-0.203-0.087-0.274-0.271-0.203-0.436c0.067-0.154,0.278-0.264,0.497-0.26c0.229,0.004,0.44,0.127,0.492,0.286
			c0.056,0.171-0.032,0.349-0.246,0.422c-0.137,0.047-0.159,0.109-0.148,0.205c0.089,0.771,0.293,1.525,0.569,2.27
			c0.181,0.485,0.383,0.963,0.773,1.398c-0.067,0.011-0.115,0.02-0.165,0.026c-0.292,0.041-0.293,0.041-0.277,0.269
			c0.014,0.185,0.037,0.37,0.041,0.555c0.001,0.106,0.061,0.131,0.19,0.132c0.341,0.001,0.683,0.008,1.022,0.022
			c0.069,0.003,0.167,0.04,0.198,0.083c0.597,0.809,1.185,1.62,1.774,2.432c0.002,0.003,0,0.009,0,0.033
			c-0.153,0.015-0.311,0.028-0.494,0.046c0,0.303,0,0.604,0,0.929c0.293-0.016,0.598-0.029,0.9-0.051
			c0.039-0.003,0.09-0.042,0.106-0.073c0.36-0.675,0.718-1.351,1.074-2.024c-0.372-0.206-0.462-0.338-0.368-0.537
			c0.075-0.161,0.281-0.264,0.519-0.256c0.222,0.007,0.417,0.124,0.474,0.283c0.069,0.197-0.037,0.349-0.364,0.495
			c0.073,0.135,0.147,0.273,0.225,0.41c0.302,0.531,0.608,1.06,0.905,1.592c0.058,0.103,0.132,0.149,0.288,0.152
			c0.319,0.005,0.639,0.027,0.984,0.043c-0.038,0.206-0.072,0.397-0.109,0.588c-0.077,0.401-0.153,0.803-0.24,1.202
			c-0.012,0.052-0.074,0.111-0.137,0.142c-0.181,0.088-0.37,0.167-0.563,0.239c-0.128,0.048-0.176,0.107-0.162,0.218
			c0.105,0.836,0.202,1.672,0.302,2.508c0.178,1.498,0.356,2.995,0.535,4.493c0.005,0.049,0.017,0.097,0.022,0.146
			c0.036,0.271-0.03,0.376-0.38,0.469c-0.257,0.068-0.53,0.12-0.801,0.139c-0.877,0.062-1.746,0.035-2.561-0.257
			c-0.132-0.047-0.259-0.118-0.358-0.198c-0.398-0.321-1.235-0.333-1.665-0.032c-0.156,0.109-0.353,0.206-0.555,0.26
			c-0.735,0.193-1.496,0.244-2.269,0.146c-0.341-0.043-0.649-0.145-0.931-0.299c-0.071-0.04-0.173-0.066-0.263-0.069
			c-0.813-0.022-1.626-0.039-2.439-0.057c-0.045-0.001-0.09-0.006-0.154-0.009c-0.005-0.05-0.011-0.097-0.013-0.145
			c-0.042-1.01-0.1-2.02-0.115-3.03c-0.005-0.312-0.182-0.54-0.421-0.762c-0.726-0.674-1.751-0.778-2.702-0.279
			c-0.123,0.064-0.241,0.136-0.354,0.21c-0.348,0.229-0.53,0.488-0.516,0.863c0.04,0.995,0.014,1.991,0.014,2.987
			c0,0.049,0,0.097,0,0.161c-0.398,0.017-0.782,0.034-1.166,0.05c-0.17,0.007-0.341,0.021-0.511,0.017
			c-0.844-0.021-1.645,0.148-2.453,0.293c-0.417,0.074-0.844,0.089-1.269,0.021c-0.244-0.039-0.455-0.12-0.61-0.273
			c-0.041-0.04-0.106-0.076-0.17-0.092c-0.633-0.164-1.283-0.248-1.954-0.179c-0.323,0.032-0.613,0.113-0.852,0.3
			c-0.114,0.09-0.296,0.147-0.461,0.185c-0.875,0.195-1.755,0.213-2.632-0.001c-0.043-0.011-0.084-0.027-0.126-0.04
			c-0.342-0.109-0.513-0.263-0.488-0.579c0.138-1.711,0.238-3.423,0.352-5.135c0.053-0.799,0.105-1.599,0.157-2.398
			c0.003-0.048,0-0.097,0-0.16c-0.153,0-0.301,0-0.475,0c-0.112-0.707-0.223-1.402-0.335-2.11c0.281-0.011,0.542-0.017,0.802-0.034
			c0.067-0.004,0.157-0.034,0.188-0.073c0.443-0.547,0.877-1.098,1.285-1.611c-0.191-0.129-0.363-0.216-0.479-0.333
			c-0.066-0.067-0.069-0.188-0.05-0.279c0.04-0.197,0.292-0.341,0.562-0.344c0.285-0.004,0.525,0.133,0.592,0.336
			c0.077,0.236-0.064,0.407-0.461,0.554c-0.001,0.012-0.008,0.027-0.002,0.039c0.292,0.561,0.602,1.115,1.04,1.623
			c0.042,0.047,0.137,0.086,0.215,0.096c0.2,0.026,0.403,0.045,0.606,0.047c0.167,0.001,0.194,0.053,0.18,0.161
			c-0.04,0.307-0.068,0.613-0.099,0.92c-0.009,0.092-0.014,0.184-0.022,0.302c0.178-0.023,0.337-0.04,0.492-0.068
			c0.032-0.006,0.072-0.057,0.071-0.085c-0.028-0.493-0.062-0.985-0.094-1.478c-0.01-0.156-0.204-0.06-0.304-0.132
			c0.035-0.037,0.07-0.08,0.112-0.12c0.521-0.483,1.046-0.965,1.562-1.451c0.063-0.06,0.106-0.147,0.108-0.223
			c0.02-0.747,0.026-1.494,0.042-2.241c0.002-0.098-0.058-0.133-0.168-0.139c-0.135-0.007-0.169-0.058-0.17-0.153
			c-0.003-0.381-0.019-0.762-0.028-1.143c-0.005-0.219-0.004-0.219-0.316-0.271c0.048-0.056,0.088-0.107,0.135-0.156
			c0.747-0.779,1.478-1.566,2.049-2.427c0.091-0.138,0.196-0.271,0.293-0.406c0.012-0.016,0.014-0.038,0.014-0.057
			c0.018-0.434,0.034-0.869,0.05-1.303c0-0.014-0.01-0.027-0.02-0.051c-0.755,0.177-1.512,0.273-2.329,0.013
			c0.896-0.153,1.589-0.54,2.409-0.829c0,0.15-0.001,0.27,0,0.389c0.008,0.552,0.004,1.104,0.034,1.655
			c0.009,0.159,0.108,0.317,0.179,0.472c0.445,0.962,1.053,1.86,1.899,2.665c0.016,0.015,0.03,0.031,0.042,0.045
			c-0.008,0.013-0.013,0.028-0.019,0.028c-0.276,0.012-0.293,0.148-0.296,0.312c-0.007,0.376-0.032,0.751-0.056,1.127
			c-0.003,0.046-0.038,0.119-0.08,0.129c-0.138,0.033-0.152,0.097-0.151,0.189c0.004,0.674,0.002,1.348,0.002,2.021
			c0,0.077,0,0.154,0,0.241c0.315,0,0.607,0,0.916,0c0-0.507,0-1.011,0-1.526c-0.08-0.009-0.161-0.018-0.27-0.03
			c0.064-0.163,0.126-0.32,0.188-0.477c0.312-0.792,0.591-1.589,0.697-2.415c0.011-0.084,0-0.14-0.108-0.195
			c-0.228-0.117-0.253-0.339-0.078-0.487c0.165-0.139,0.452-0.152,0.636-0.028c0.198,0.133,0.208,0.352,0.002,0.491
			c-0.093,0.063-0.112,0.116-0.081,0.202c0.13,0.358,0.251,0.717,0.379,1.075c0.024,0.068,0.067,0.133,0.146,0.194
			c0-0.119,0-0.238,0-0.357c-0.001-1.225-0.001-2.451-0.005-3.676c0-0.066-0.027-0.135-0.058-0.198
			c-0.082-0.168-0.173-0.335-0.267-0.515c0.11-0.01,0.198-0.019,0.312-0.029c0-0.201,0.005-0.4-0.006-0.598
			c-0.001-0.027-0.079-0.069-0.126-0.073c-0.128-0.01-0.259-0.003-0.424-0.003c0.069-0.233,0.14-0.444,0.192-0.657
			c0.253-1.032,0.505-2.063,0.75-3.096c0.042-0.177,0.04-0.36,0.072-0.539c0.008-0.044,0.07-0.084,0.107-0.125
			c0.028,0.042,0.076,0.082,0.082,0.125c0.172,1.363,0.535,2.692,1.258,3.958c0.059,0.103,0.126,0.202,0.19,0.305
			c-0.296,0.043-0.298,0.043-0.305,0.272c-0.004,0.141-0.001,0.282-0.001,0.431c0.091,0.017,0.178,0.034,0.294,0.056
			c-0.061,0.128-0.132,0.248-0.173,0.372c-0.051,0.154-0.106,0.313-0.11,0.47c-0.017,0.615-0.015,1.23-0.019,1.846
			c0,0.037,0.006,0.075,0.009,0.112c0.017,0.007,0.033,0.013,0.049,0.02c0.092-0.106,0.2-0.207,0.273-0.32
			c0.344-0.527,0.525-1.092,0.655-1.666c0.07-0.308,0.104-0.62,0.155-0.929c0.013-0.079-0.013-0.129-0.122-0.174
			c-0.224-0.09-0.312-0.271-0.243-0.437c0.07-0.168,0.268-0.275,0.503-0.273c0.23,0.002,0.437,0.122,0.491,0.285
			c0.057,0.173-0.038,0.349-0.264,0.431c-0.116,0.042-0.128,0.097-0.121,0.174c0.066,0.738,0.238,1.463,0.497,2.175
			c0.115,0.314,0.268,0.622,0.425,0.926c0.117,0.228,0.133,0.224,0.452,0.178C21.968,17.542,22.006,17.536,22.073,17.526z
			 M25.473,26.728c-0.153,0.014-0.276,0.036-0.398,0.032c-0.205-0.006-0.244,0.062-0.244,0.202c0.006,2.226,0.004,4.45,0.004,6.675
			c0,0.052,0,0.104,0,0.155c0.116,0,0.204,0,0.305,0C25.25,31.438,25.36,29.095,25.473,26.728z M14.941,26.749
			c0.138,2.356,0.274,4.685,0.411,7.009c0.219,0.033,0.271-0.026,0.271-0.168c-0.015-1.815-0.022-3.63-0.032-5.445
			c-0.002-0.419-0.004-0.839-0.008-1.259c-0.001-0.058,0.032-0.137-0.108-0.137C15.305,26.749,15.136,26.749,14.941,26.749z
			 M19.782,24.971c0.297,0.01,0.297,0.01,0.297-0.178c0-0.703,0-1.406,0-2.108c0-0.053-0.006-0.104-0.009-0.158
			c-0.107,0-0.194,0-0.288,0C19.782,23.347,19.782,24.154,19.782,24.971z M20.986,24.963c0.308,0.019,0.309,0.017,0.307-0.191
			c-0.008-0.691-0.015-1.384-0.022-2.075c-0.003-0.188-0.005-0.189-0.285-0.16C20.986,23.341,20.986,24.147,20.986,24.963z
			 M20.112,21.641c0-0.051,0-0.094,0-0.136c-0.01-0.555-0.02-1.11-0.029-1.665c-0.003-0.209-0.02-0.219-0.308-0.174
			c0,0.655,0,1.31,0,1.975C19.892,21.641,19.992,21.641,20.112,21.641z M21.279,21.633c0-0.677,0-1.34,0-2.017
			c-0.105,0.012-0.193,0.022-0.28,0.032c0,0.667,0,1.322,0,1.985C21.094,21.633,21.177,21.633,21.279,21.633z"/>
		<path fill-rule="evenodd" clip-rule="evenodd" d="M20.819,5.791c0.496,0.187,0.984,0.091,1.463-0.031
			c0.327-0.083,0.641-0.196,0.96-0.296c0.059-0.019,0.116-0.039,0.239-0.079c0,0.305,0.001,0.58-0.003,0.854
			c0,0.02-0.026,0.046-0.05,0.056c-0.397,0.158-0.782,0.337-1.241,0.388c-0.445,0.049-0.809-0.049-1.048-0.337
			c-0.14-0.168-0.243-0.353-0.362-0.53C20.791,5.808,20.805,5.799,20.819,5.791z"/>
		<path fill-rule="evenodd" clip-rule="evenodd" d="M15.327,8.677c0.917-0.061,1.794-0.161,2.63-0.485c0,0.343,0,0.667,0,0.993
			c-0.01,0.001-0.02,0.003-0.03,0.005c-0.009-0.06-0.019-0.12-0.028-0.18C17.186,9.237,15.859,9.071,15.327,8.677z"/>
	</g>
</g>
</svg>
