<?xml version="1.0" encoding="utf-8"?>
<!-- Generator: Adobe Illustrator 16.0.3, SVG Export Plug-In . SVG Version: 6.00 Build 0)  -->
<!DOCTYPE svg PUBLIC "-//W3C//DTD SVG 1.1//EN" "http://www.w3.org/Graphics/SVG/1.1/DTD/svg11.dtd">
<svg version="1.1" id="Layer_1" xmlns="http://www.w3.org/2000/svg" xmlns:xlink="http://www.w3.org/1999/xlink" x="0px" y="0px"
	 width="40px" height="40px" viewBox="0 0 40 40" enable-background="new 0 0 40 40" xml:space="preserve">
<path fill-rule="evenodd" clip-rule="evenodd" d="M32.83,21.384c-0.191-0.245-0.358-0.51-0.549-0.757
	c-0.504-0.659-1.044-0.776-1.764-0.375c-0.142,0.08-0.225,0.062-0.338-0.04c-0.37-0.333-1.042-0.309-1.334,0.108
	c-0.386,0.551-0.859,1.056-1.045,1.732c-0.082,0.3-0.191,0.576-0.551,0.671c-0.121,0.032-0.236,0.157-0.313,0.268
	c-0.146,0.21-0.319,0.218-0.534,0.141c-1.098-0.394-1.738-1.223-2.162-2.258c-0.062-0.15-0.02-0.21,0.148-0.223
	c0.382-0.03,0.729-0.182,1.067-0.349c0.095-0.047,0.203-0.086,0.213-0.218c0.233-0.072,0.466-0.143,0.698-0.214
	c0.114-0.038,0.223-0.036,0.345-0.011c0.856,0.17,1.703,0.121,2.498-0.252c0.913-0.43,1.634-1.047,1.772-2.133
	c0.018-0.136,0.113-0.196,0.211-0.267c0.399-0.292,0.663-0.672,0.744-1.169c0.063-0.385-0.133-0.85-0.43-1.014
	c-0.288-0.16-0.669-0.075-0.976,0.211c-0.191,0.178-0.359,0.373-0.458,0.618c-0.067,0.168-0.187,0.249-0.354,0.183
	c-0.175-0.07-0.087-0.216-0.06-0.334c0.142-0.635,0.194-1.269,0.098-1.921c-0.292-1.97-1.702-3.54-3.644-4.008
	c-0.313-0.075-0.637-0.113-0.985-0.173c0.099-0.069,0.17-0.118,0.238-0.168c1.079-0.789,1.166-2.01,0.2-2.896
	c-0.364-0.334-0.806-0.379-1.271-0.529C24.203,5.974,24.064,6,24.048,6c-0.583,0-1.166,0-1.749,0c-0.025,0-0.18-0.021-0.28,0.013
	C21.542,6.17,21.101,6.297,20.73,6.65c-0.988,0.94-0.768,2.13,0.366,2.91c0.515,0.354,1.111,0.467,1.786,0.581
	c-0.441,0.268-0.827,0.49-1.146,0.813c-0.12,0.123-0.235,0.299-0.38,0.331c-0.206,0.045-0.186-0.252-0.323-0.347
	c-0.009-0.006-0.016-0.017-0.022-0.025c-1.365-1.526-3.718-1.709-5.26-0.364c-0.506,0.441-0.765,1.038-0.566,1.748
	c0.224,0.8,0.8,1.271,1.53,1.551c1.069,0.413,2.156,0.37,3.223-0.028c0.236-0.088,0.316-0.064,0.292,0.192
	c-0.01,0.106,0.001,0.215-0.005,0.322c-0.058,1.052,0.246,2.001,0.813,2.874c0.055,0.083,0.106,0.162,0.102,0.265l-0.01,0.01
	c-0.343-0.202-0.681-0.411-1.028-0.605c-1.398-0.779-2.838-1.272-4.433-0.611c-0.174,0.072-0.306,0.012-0.454-0.073
	c-0.56-0.323-1.065-0.268-1.542,0.161c-0.09,0.082-0.176,0.149-0.308,0.153c-0.594,0.017-1.156,0.179-1.661,0.478
	c-1.323,0.782-1.888,1.741-1.588,3.142c0.018,0.086,0.015,0.176,0.124,0.203c0.004,0.297,0.173,0.514,0.347,0.754
	c0.1-0.167,0.078-0.358,0.233-0.488c0.016,0.36-0.079,0.714,0.08,1.046c-0.022,0.145,0.042,0.274,0.085,0.405
	c0.169,0.514,0.469,0.641,0.965,0.401c0.192-0.094,0.368-0.22,0.552-0.329c0.285-0.167,0.562-0.355,0.906-0.385l0.019,0.02
	c-0.196,0.156-0.393,0.313-0.609,0.485c0.086,0.039,0.151,0.07,0.215,0.101c0.649,0.374,1.274,0.237,1.686-0.359
	c0.432-0.626,0.621-1.318,0.588-2.076c-0.006-0.144-0.042-0.298,0.111-0.415c0.382-0.289,0.551-0.707,0.652-1.157
	c0.027-0.121,0.034-0.231,0.176-0.277c0.256-0.082,0.51-0.168,0.782-0.193c1.25-0.118,2.327,0.313,3.322,1.025
	c0.2,0.145,0.169,0.234,0.012,0.364c-0.627,0.517-1.318,0.82-2.148,0.614c-0.187-0.047-0.281,0.009-0.345,0.177
	c-0.037,0.102-0.11,0.191-0.136,0.293c-0.052,0.217-0.182,0.292-0.398,0.347c-1.154,0.29-2.071,0.86-2.356,2.121
	c-0.024,0.11-0.096,0.168-0.189,0.202c-0.223,0.081-0.432,0.202-0.67,0.233c-0.113,0.015-0.215,0.037-0.249,0.165
	c-0.162-0.02-0.149,0.123-0.182,0.209c-0.079,0.212-0.061,0.44-0.084,0.662c-0.087,0.026-0.111,0.095-0.111,0.175
	c0.003,0.452-0.045,0.906,0.028,1.354c0.026,0.156-0.007,0.241-0.138,0.315c-0.364,0.207-0.725,0.423-1.089,0.63
	c-0.054,0.03-0.139,0.066-0.181,0.044c-0.317-0.158-0.677-0.093-0.999-0.193c-0.918-0.285-1.718-0.053-2.375,0.594
	c-1.116,1.097-1.593,2.502-1.785,4.018c-0.029,0.229-0.183,0.478,0.005,0.712c-0.028,0.634-0.094,1.271,0.178,1.876
	c-0.08,0.072-0.019,0.14,0.011,0.203c0.235,0.506,0.663,0.813,1.127,1.075c0.565,0.318,1.188,0.452,1.824,0.51
	c0.956,0.087,1.899,0.011,2.793-0.366c0.64-0.27,0.817-0.8,0.525-1.437c-0.239-0.521-0.602-0.952-1.038-1.309
	c-0.474-0.388-0.639-0.905-0.702-1.473c-0.048-0.422-0.023-0.43,0.396-0.447c0.096-0.004,0.194-0.019,0.286-0.045
	c0.263-0.078,0.529-0.17,0.595-0.482c0.058-0.275-0.118-0.44-0.324-0.58c-0.151-0.103-0.075-0.168,0.039-0.229
	c0.241-0.132,0.39-0.356,0.355-0.608c-0.067-0.49,0.163-0.736,0.576-0.901c0.159-0.064,0.306-0.16,0.45-0.255
	c0.183-0.119,0.335-0.107,0.528,0.012c0.465,0.288,0.942,0.45,1.36-0.093c0.025-0.032,0.071-0.048,0.107-0.073
	c0.525-0.364,0.537-0.367,0.716,0.239c0.06,0.205,0.161,0.263,0.346,0.229c0.778-0.143,1.522-0.394,2.24-0.724
	c0.179-0.082,0.17-0.175,0.072-0.327c-0.083-0.129-0.235-0.216-0.281-0.429c0.296,0.13,0.487,0.314,0.687,0.506
	c0.232,0.223,0.178,0.369-0.036,0.54c-0.176,0.143-0.354,0.286-0.506,0.451c-0.145,0.158-0.282,0.173-0.486,0.118
	c-0.376-0.102-0.774-0.155-1.13,0.057c-0.189,0.113-0.372,0.144-0.581,0.142c-1.285-0.012-2.08,0.729-2.029,2.016
	c0.087,2.194,1.22,3.775,3.092,4.83c0.982,0.553,2.066,0.696,3.193,0.54c0.938-0.129,1.768-0.444,2.298-1.267
	c0.393-0.61,0.61-1.279,0.203-1.978c-0.356-0.611-0.893-0.998-1.601-1.089c-0.726-0.094-1.446-0.213-2.155-0.397
	c-0.03-0.021-0.061-0.04-0.091-0.06c0.158-0.091,0.333-0.15,0.467-0.281c0.326-0.073,0.607-0.326,0.57-0.562
	c-0.075-0.478-0.5-0.362-0.888-0.428c0.503-0.328,0.86-0.713,1.229-1.087c0.303-0.306,0.49-0.679,0.629-1.081
	c0.154-0.446,0.041-0.825-0.295-1.144c-0.109-0.104-0.223-0.204-0.341-0.297c-0.088-0.068-0.161-0.137-0.172-0.258
	c-0.023-0.263-0.153-0.473-0.353-0.634c-0.143-0.114-0.158-0.241-0.095-0.396l0.014-0.01l0.017,0.002
	c0.031-0.015,0.063-0.03,0.093-0.046c0.021-0.005,0.042-0.01,0.063-0.015c0.273-0.043,0.521,0.08,0.783,0.121
	c0.254,0.04,0.421,0.007,0.388-0.314c-0.031-0.291,0.011-0.576,0.13-0.848c0.047-0.039,0.096-0.077,0.144-0.116
	c0.372-0.078,0.541-0.409,0.771-0.651c0.275-0.289,0.258-0.309,0.441,0.064c0.589,1.198,1.545,1.997,2.748,2.524
	c0.246,0.106,0.505,0.178,0.649,0.44c0.059,0.104,0.168,0.165,0.303,0.136c0.022,0.058,0.068,0.076,0.126,0.074
	c0.038,0.051,0.089,0.063,0.149,0.049c0.201,0.039,0.38-0.026,0.554-0.117c0.066,0.055,0.133,0.107,0.199,0.162
	c0.728,0.585,1.539,0.835,2.432,0.479c0.618-0.246,1.114-0.672,1.322-1.349c0.022-0.024,0.045-0.049,0.065-0.073
	c0.069-0.105,0.139-0.211,0.207-0.317c0.008-0.006,0.021-0.012,0.02-0.017c-0.001-0.017-0.007-0.031-0.011-0.047
	c-0.001-0.045-0.002-0.091-0.004-0.136c0.021-0.04,0.044-0.08,0.064-0.119c0.369-0.371,0.492-0.867,0.675-1.331
	C33.331,22.47,33.236,21.904,32.83,21.384z M15.528,18.54c-0.023-0.018-0.045-0.021-0.067-0.015
	C15.483,18.519,15.505,18.521,15.528,18.54z M15.256,18.661L15.256,18.661c-0.261,0.046-0.5-0.001-0.68-0.203
	C14.756,18.66,14.996,18.707,15.256,18.661z M13.923,19.495L13.923,19.495C13.924,19.495,13.924,19.495,13.923,19.495
	C13.923,19.495,13.923,19.495,13.923,19.495z M13.934,19.486L13.934,19.486L13.934,19.486c0-0.001,0-0.001,0-0.002
	C13.934,19.485,13.934,19.485,13.934,19.486L13.934,19.486L13.934,19.486z M14.127,19.688L14.127,19.688L14.127,19.688
	L14.127,19.688c0.04,0.117,0.079,0.235,0.113,0.354C14.207,19.924,14.167,19.806,14.127,19.688
	C14.127,19.688,14.127,19.688,14.127,19.688z M14.075,19.639c0.02,0.016,0.039,0.032,0.059,0.049l0,0
	C14.114,19.671,14.095,19.655,14.075,19.639z M13,34.281c0-0.005,0-0.009,0-0.013C13,34.272,13,34.276,13,34.281z M12.801,33.722
	c0.014,0.067,0.032,0.133,0.04,0.2C12.833,33.854,12.814,33.789,12.801,33.722z M12.771,33.568
	c-0.015-0.051-0.037-0.102-0.055-0.151C12.733,33.467,12.756,33.518,12.771,33.568z M21.116,21.243L21.116,21.243L21.116,21.243
	L21.116,21.243c0,0,0,0,0.002,0c0.081,0.117,0.188,0.199,0.289,0.293C21.307,21.442,21.199,21.36,21.116,21.243z M20.164,21.792
	c0.011-0.016,0.016-0.037,0.008-0.066C20.179,21.755,20.175,21.777,20.164,21.792z M17.769,25.52L17.769,25.52L17.769,25.52
	L17.769,25.52c-0.002-0.002-0.003,0.001-0.005,0C17.767,25.521,17.767,25.518,17.769,25.52L17.769,25.52z M17.703,25.582
	L17.703,25.582c-0.001-0.005,0.002-0.006,0.001-0.011C17.705,25.576,17.703,25.577,17.703,25.582z M17.705,25.583L17.705,25.583
	L17.705,25.583c0.006,0,0.011-0.003,0.017-0.004C17.715,25.58,17.711,25.583,17.705,25.583c0,0.007-0.005,0.004-0.006,0.01
	C17.699,25.587,17.704,25.589,17.705,25.583z M17.77,25.526L17.77,25.526c0.001,0.021-0.002,0.037-0.013,0.045
	C17.768,25.563,17.771,25.547,17.77,25.526z M18.402,23.505c0-0.001-0.002,0.017-0.002,0.017L18.402,23.505
	c0.023,0.032,0.047,0.063,0.071,0.096C18.449,23.568,18.425,23.537,18.402,23.505z M17.816,30.37c-0.11-0.32-0.215-0.642-0.25-0.977
	C17.601,29.729,17.706,30.051,17.816,30.37L17.816,30.37z M23.525,32.703c-0.169-0.248-0.367-0.466-0.581-0.669
	C23.158,32.237,23.356,32.455,23.525,32.703L23.525,32.703L23.525,32.703c-0.003,0.057,0.012,0.104,0.063,0.137
	C23.536,32.808,23.522,32.759,23.525,32.703z M23.236,32.14c-0.038-0.048-0.068-0.101-0.112-0.145
	C23.168,32.039,23.198,32.092,23.236,32.14z M20.05,32.229c-0.104,0.061-0.209,0.121-0.318,0.184
	C19.841,32.35,19.946,32.289,20.05,32.229c0.423-0.422,0.96-0.664,1.497-0.883C21.011,31.564,20.473,31.807,20.05,32.229z
	 M29.228,24.571c0.003-0.011-0.006-0.018-0.002-0.029l0,0C29.222,24.554,29.23,24.561,29.228,24.571z M28.115,25.396L28.115,25.396
	c-0.002,0-0.003-0.001-0.005,0C28.112,25.395,28.113,25.396,28.115,25.396z M29.227,24.541C29.227,24.54,29.227,24.54,29.227,24.541
	L29.227,24.541c0.006-0.039-0.016-0.055-0.049-0.063C29.212,24.486,29.233,24.502,29.227,24.541
	c0.654,0.284,1.325,0.453,2.049,0.404C30.552,24.994,29.881,24.825,29.227,24.541z"/>
</svg>
