<?xml version="1.0" encoding="utf-8"?>
<!-- Generator: Adobe Illustrator 16.0.3, SVG Export Plug-In . SVG Version: 6.00 Build 0)  -->
<!DOCTYPE svg PUBLIC "-//W3C//DTD SVG 1.1//EN" "http://www.w3.org/Graphics/SVG/1.1/DTD/svg11.dtd">
<svg version="1.1" id="Layer_1" xmlns="http://www.w3.org/2000/svg" xmlns:xlink="http://www.w3.org/1999/xlink" x="0px" y="0px"
	 width="40px" height="40px" viewBox="0 0 40 40" enable-background="new 0 0 40 40" xml:space="preserve">
<path fill-rule="evenodd" clip-rule="evenodd" d="M35.041,16.376c0,0.407,0,0.815,0,1.224c-0.015,0.064-0.033,0.13-0.043,0.196
	c-0.168,1.134-0.621,2.134-1.417,2.962c-1.211,1.259-2.714,1.768-4.438,1.689c-0.07-0.003-0.142,0-0.235,0
	c0.035,0.094,0.061,0.162,0.087,0.23c0.34,0.872,0.552,1.775,0.616,2.708c0.162,2.352-0.429,4.498-1.841,6.391
	c-1.505,2.019-3.512,3.259-5.992,3.713c-0.438,0.081-0.886,0.112-1.33,0.167c-0.245,0-0.489,0-0.733,0
	c-0.066-0.012-0.131-0.028-0.197-0.033c-1.475-0.091-2.854-0.503-4.14-1.229c-3.806-2.151-5.656-6.673-4.444-10.878
	c0.104-0.363,0.236-0.719,0.364-1.103c-0.483,0-0.959,0.038-1.428-0.007c-2.221-0.214-4.077-1.813-4.626-3.975
	c-0.097-0.379-0.136-0.771-0.203-1.158c0-0.191,0-0.381,0-0.571C5.072,16.468,5.089,16.23,5.136,16
	c0.537-2.642,2.105-4.388,4.633-5.278c0.418-0.147,0.869-0.201,1.304-0.297c0.421,0,0.843,0,1.264,0
	c0.138,0.028,0.275,0.058,0.414,0.083c2.78,0.5,4.652,2.924,4.454,5.769c-0.018,0.262-0.056,0.522-0.087,0.808
	c1.952-0.62,3.896-0.628,5.862-0.037c-0.006-0.081-0.012-0.14-0.013-0.199c-0.014-0.547-0.097-1.104-0.026-1.641
	c0.294-2.241,1.529-3.75,3.662-4.501c0.38-0.134,0.788-0.189,1.183-0.281c0.421,0,0.843,0,1.264,0
	c0.045,0.013,0.089,0.03,0.135,0.038c2.826,0.473,4.695,2.074,5.608,4.785C34.914,15.61,34.96,15.999,35.041,16.376z"/>
</svg>
